<?xml version="1.0" encoding="utf-8"?>
<!-- Generator: Adobe Illustrator 23.0.3, SVG Export Plug-In . SVG Version: 6.00 Build 0)  -->
<svg version="1.1" id="Calque_1" xmlns="http://www.w3.org/2000/svg" xmlns:xlink="http://www.w3.org/1999/xlink" x="0px" y="0px"
	 viewBox="0 0 336 137.3" style="enable-background:new 0 0 336 137.3;" xml:space="preserve">
<style type="text/css">
	.st0{fill:#003e7e;}
	.st1{fill:#0079c2;}
	.st2{fill:#99d7db;}
</style>
<g>
	<g>
		<g>
			<path class="st0" d="M163,71.4l-0.3,0.3V75l0.3,0.3h4l0.3-0.3v-3.3l-0.3-0.3H163z M135.5,71.4l-0.3,0.3L128.5,88h-0.3l-6.6-16.2
				l-0.3-0.3h-5l-0.3,0.3v22.5l0.3,0.3h4l0.3-0.3V81.4h0.3l5.3,12.9l0.3,0.3h3.6l0.3-0.3l5.3-12.9h0.3v12.9l0.3,0.3h4l0.3-0.3V71.8
				l-0.3-0.3L135.5,71.4L135.5,71.4z M152,77.7c-5.3,0-7,3-7,5l0.3,0.3h4l0.3-0.3c0.3-1,1.3-1,2.3-1c2,0,2.3,0.3,2.3,2V84l-0.3,0.3
				c0,0-1-0.3-2.3-0.3c-2.7,0-7.3,0.7-7.3,5.6c0,3.3,2.3,5.3,6,5.3c2.3,0,3.6-1.3,3.6-1.3h0.3l0.3,0.7l0.3,0.3h3.6l0.3-0.3v-9
				C159,80.4,157.3,77.7,152,77.7z M154.3,88.7c0,1.3-1.3,2.3-3,2.3s-2.3-0.7-2.3-1.7c0-1.3,1-2,3-2c1.3,0,2,0.3,2,0.3l0.3,0.3V88.7
				z M163,78.1l-0.3,0.3v15.9l0.3,0.3h4l0.3-0.3V78.4l-0.3-0.3H163z M179.2,84.7c-2-0.3-4-0.3-4-1.7c0-1,0.7-1.3,2.3-1.3
				c1.7,0,2.3,0.3,2.3,1l0.3,0.3h4l0.3-0.3c0-3.3-3-5-7-5c-5,0-7,2.3-7,5c0,4,4.3,5,6.3,5.3s3.3,0.3,3.3,1.7c0,1-1,1.3-2.7,1.3
				s-2.7-0.3-2.7-1.7l-0.3-0.3h-4l-0.3,0.3c0,3.3,2.7,5.6,7.3,5.6c5.3,0,7.3-2.6,7.3-5.3C184.9,85.7,181.2,85,179.2,84.7z
				 M251.8,77.7c-5.3,0-8,4-8,8.6s2.6,8.6,8.3,8.6c5,0,6.6-3,7-5l-0.3-0.3h-4l-0.3,0.3c-0.3,0.7-1.3,1-2.3,1c-2.7,0-3.3-2-3.3-2.7
				l0.3-0.3h10.3l0.3-0.3v-1.3C259.8,81.7,257.1,77.7,251.8,77.7z M254.5,84.7h-5.3l-0.3-0.3c0-0.3,0.3-2.6,3-2.6s3,2.3,3,2.6
				L254.5,84.7z M292.9,78.1l-0.3,0.3l-4,10.3h-0.3l-4-10.3l-0.3-0.3h-3l-0.3,0.3v3.3l5.6,12.6l0.3,0.3h3.6l0.3-0.3l5.6-12.6v-3.3
				l-0.3-0.3H292.9z M234.9,77.7c-2.3,0-3.6,1-4.3,1.7h-0.3l-0.3-1l-0.3-0.3H226l-0.3,0.3v15.9l0.3,0.3h4l0.3-0.3V86
				c0-3,1.3-4.3,3.6-4.3c2,0,2.6,1.3,2.6,3v9.6l0.3,0.3h4l0.3-0.3v-9.9C241.2,80.4,238.9,77.7,234.9,77.7z M273.4,78.1l-0.3,0.3V87
				c0,2.3-1,4-3.3,4c-2,0-2.7-1.3-2.7-3v-9.6l-0.3-0.3h-4l-0.3,0.3v9.9c0,4,2.3,6.6,6.3,6.6c3,0,4-1.7,4-1.7h0.3l0.3,1l0.3,0.3h3.7
				l0.3-0.3V78.4l-0.3-0.3H273.4z M305.9,77.7c-5.3,0-8,4-8,8.6s2.7,8.6,8.3,8.6c5,0,6.6-3,7-5l-0.3-0.3h-4l-0.3,0.3
				c-0.3,0.7-1.3,1-2.3,1c-2.6,0-3.3-2-3.3-2.7l0.3-0.3h10.3l0.3-0.3v-1.3C313.8,81.7,311.2,77.7,305.9,77.7z M308.5,84.7h-5.3
				l-0.3-0.3c0-0.3,0.3-2.6,3-2.6s3,2.3,3,2.6L308.5,84.7z M195.1,77.7c-5,0-8.3,3.3-8.3,8.6c0,5.3,3.3,8.6,8.3,8.6s8.3-3.3,8.3-8.6
				C203.4,81,200.1,77.7,195.1,77.7z M195.1,91c-2.3,0-3.6-1.7-3.6-4.6c0-3,1.3-4.6,3.6-4.6s3.6,1.7,3.6,4.6
				C198.8,89.3,197.5,91,195.1,91z M215.7,77.7c-2.3,0-3.6,1-4.3,1.7H211l-0.3-1l-0.3-0.3h-3.6l-0.3,0.3v15.9l0.3,0.3h4l0.3-0.3V86
				c0-3,1.3-4.3,3.6-4.3c2,0,2.7,1.3,2.7,3v9.6l0.3,0.3h4l0.3-0.3v-9.9C222,80.4,219.7,77.7,215.7,77.7z M167.4,46.4h0.5l0.5-0.5
				v-0.8l-2.6-2.8l-0.7-0.4h-1l-0.5,0.5v0.8l3.1,2.9L167.4,46.4z M157.1,61.8l0.5-0.5v-19l-0.5-0.5h-1.4l-0.5,0.5v19l0.5,0.5H157.1z
				 M197,62.1c3.8,0,5.5-2.3,5.8-4.4v-0.2l-0.5-0.5H201l-0.4,0.4v0.1c-0.6,1.7-1.7,2.5-3.6,2.5c-3.5,0-4.3-3.2-4.4-4.5l0.1-0.1h9.9
				l0.5-0.5v-1c0-4.2-2.5-6.9-6.4-6.9s-6.4,2.7-6.4,6.9v0.6C190.4,58.3,192.1,62.1,197,62.1z M196.7,49.2c3.2,0,4.1,2.6,4.1,4.2
				l-0.1,0.1h-8l-0.1-0.1C192.7,51.8,193.6,49.2,196.7,49.2z M235.1,62.1c3.8,0,5.5-2.3,5.8-4.4v-0.2l-0.5-0.5H239l-0.4,0.4v0.1
				c-0.6,1.7-1.7,2.5-3.6,2.5c-3.5,0-4.3-3.2-4.4-4.5l0.1-0.1h9.9l0.5-0.5v-1c0-4.2-2.5-6.9-6.4-6.9s-6.4,2.7-6.4,6.9v0.6
				C228.4,58.3,230.2,62.1,235.1,62.1z M234.8,49.2c3.2,0,4.1,2.6,4.1,4.2l-0.1,0.1h-8l-0.1-0.1C230.8,51.8,231.7,49.2,234.8,49.2z
				 M140.2,62.1c4,0,6.7-2.9,6.7-7.5c0-4.5-2.6-7.5-6.7-7.5c-4,0-6.7,2.9-6.7,7.5S136.1,62.1,140.2,62.1z M140.2,49.2
				c2.7,0,4.4,2.2,4.4,5.5s-1.7,5.5-4.4,5.5s-4.4-2.2-4.4-5.5C135.8,51.3,137.5,49.2,140.2,49.2z M151.3,61.8l0.5-0.5v-19l-0.5-0.5
				H150l-0.5,0.5v19l0.5,0.5H151.3z M172.8,57.7v-0.2l-0.5-0.5H171l-0.4,0.4v0.1c-0.6,1.7-1.7,2.5-3.6,2.5c-3.5,0-4.3-3.2-4.4-4.5
				l0.1-0.1h9.9l0.5-0.5v-1c0-4.2-2.5-6.9-6.4-6.9s-6.4,2.7-6.4,6.9v0.6c0,3.6,1.8,7.5,6.7,7.5C170.7,62.1,172.4,59.8,172.8,57.7z
				 M166.7,49.2c3.2,0,4.1,2.6,4.1,4.2l-0.1,0.1h-8l-0.1-0.1C162.6,51.8,163.5,49.2,166.7,49.2z M225.8,42.4l-0.5-0.5h-1.4l-0.5,0.5
				V49c-0.6-0.8-1.8-1.9-4.4-1.9c-3.8,0-6.1,2.9-6.1,7.5s2.3,7.5,6.1,7.5c2.7,0,3.9-1.2,4.5-2l0.2,1.3l0.4,0.4h1.1l0.5-0.5
				L225.8,42.4L225.8,42.4z M219.4,60.1c-3.4,0-4.1-3-4.1-5.5s0.7-5.5,4.1-5.5c3.4,0,4.1,3,4.1,5.5S222.8,60.1,219.4,60.1z
				 M123.6,62.1c4.3,0,7.2-2.4,7.8-6.3v-0.2l-0.5-0.5h-1.4l-0.4,0.4v0.1c-0.5,2.9-2.4,4.4-5.5,4.4c-4.2,0-6.9-3.2-6.9-8.2
				c0-5.1,2.6-8.2,6.9-8.2c3,0,4.9,1.4,5.5,4.2v0.1l0.4,0.4h1.4l0.5-0.5v-0.2c-0.5-3.8-3.4-6.1-7.8-6.1c-4.6,0-9.1,3.2-9.1,10.2
				C114.5,59,119.1,62.1,123.6,62.1z M187.7,47.9l-0.5-0.5h-1.1l-0.4,0.4l-0.2,1.3c-0.5-0.8-1.8-2-4.5-2c-3.8,0-6.1,2.9-6.1,7.5
				s2.3,7.5,6.1,7.5c2.5,0,3.8-1.1,4.4-1.8c-0.1,3.7-1.3,5.4-3.8,5.4s-3.1-1.2-3.3-2.2v-0.1l-0.4-0.4h-1.4l-0.5,0.5v0.2
				c0.3,2.6,2.4,4.1,5.6,4.1c4.1,0,6.1-2.7,6.1-8L187.7,47.9L187.7,47.9z M181.3,60.1c-3.4,0-4.1-3-4.1-5.5s0.7-5.5,4.1-5.5
				c3.4,0,4.1,3,4.1,5.5C185.4,57.1,184.7,60.1,181.3,60.1z"/>
		</g>
	</g>
	<polygon class="st0" points="45.4,113.3 0,113.3 0,22.6 45.4,67.9 	"/>
	<polygon class="st1" points="45.4,113.3 90.7,113.3 90.7,22.6 45.4,67.9 	"/>
	<polygon class="st2" points="45.4,67.9 0,22.6 90.7,22.6 	"/>
</g>
</svg>
